<?xml version="1.0" standalone="no"?>
<!DOCTYPE svg PUBLIC "-//W3C//DTD SVG 20010904//EN"
 "http://www.w3.org/TR/2001/REC-SVG-20010904/DTD/svg10.dtd">
<svg version="1.0" xmlns="http://www.w3.org/2000/svg"
 width="800.000000pt" height="800.000000pt" viewBox="0 0 800.000000 800.000000"
 preserveAspectRatio="xMidYMid meet">

<g transform="translate(0.000000,800.000000) scale(0.100000,-0.100000)"
fill="#000000" stroke="none">
<path d="M95 7986 c-41 -18 -83 -69 -90 -109 -3 -18 -4 -1774 -3 -3904 l3
-3872 21 -27 c11 -15 33 -37 48 -48 l27 -21 3899 0 3899 0 27 21 c15 11 37 33
48 48 l21 27 0 3899 0 3899 -21 27 c-11 15 -33 37 -48 48 l-27 21 -3887 2
c-3216 2 -3892 0 -3917 -11z m3753 -2063 l-3 -1768 -1767 -3 -1768 -2 0 1770
0 1770 1770 0 1770 0 -2 -1767z m3842 -1923 l0 -3690 -1770 0 -1770 0 0 3690
0 3690 1770 0 1770 0 0 -3690z m-3842 -1922 l2 -1768 -1770 0 -1770 0 0 1770
0 1770 1768 -2 1767 -3 3 -1767z"/>
</g>
</svg>
