<?xml version="1.0" encoding="iso-8859-1"?>
<!-- Uploaded to: SVG Repo, www.svgrepo.com, Generator: SVG Repo Mixer Tools -->
<svg fill="#000000" height="800px" width="800px" version="1.1" id="Layer_1" xmlns="http://www.w3.org/2000/svg" xmlns:xlink="http://www.w3.org/1999/xlink" 
	 viewBox="0 0 210.414 210.414" xml:space="preserve">
<g>
	<g>
		<path d="M206.517,3.896h-50.655h-50.655H3.897C1.743,3.896,0,5.64,0,7.793v97.414v97.414c0,2.152,1.743,3.897,3.897,3.897h50.655
			h50.655h101.31c2.154,0,3.897-1.745,3.897-3.897v-97.414V7.793C210.414,5.64,208.671,3.896,206.517,3.896z M50.655,198.723H7.793
			v-89.621h42.862V198.723z M101.31,198.723H58.448v-89.621h42.862V198.723z M101.31,101.31H54.552H7.793V11.69h93.517V101.31z
			 M159.759,11.69h42.862v89.62h-42.862V11.69z M109.104,11.69h42.862v89.62h-42.862V11.69z M202.622,198.723L202.622,198.723
			h-93.518v-89.621h46.759h46.759V198.723z"/>
	</g>
</g>
</svg>