<?xml version="1.0" encoding="iso-8859-1"?>
<!-- Uploaded to: SVG Repo, www.svgrepo.com, Generator: SVG Repo Mixer Tools -->
<svg fill="#000000" height="800px" width="800px" version="1.1" id="Layer_1" xmlns="http://www.w3.org/2000/svg" xmlns:xlink="http://www.w3.org/1999/xlink" 
	 viewBox="0 0 206.517 206.517" xml:space="preserve">
<g>
	<g>
		<path d="M202.621,1.947H136.38H70.138H3.897C1.745,1.947,0,3.692,0,5.844v194.828c0,2.152,1.745,3.897,3.897,3.897h66.241h66.241
			h66.241c2.152,0,3.897-1.745,3.897-3.897v-97.414V5.844C206.517,3.692,204.772,1.947,202.621,1.947z M66.241,196.774H7.793V9.741
			h58.448V196.774z M132.482,103.257v93.517H74.034V9.741h58.448V103.257z M198.724,196.775h-58.448v-89.621h58.448V196.775z
			 M198.724,99.361h-58.448V9.741h58.448V99.361z"/>
	</g>
</g>
</svg>