<?xml version="1.0" standalone="no"?>
<!DOCTYPE svg PUBLIC "-//W3C//DTD SVG 20010904//EN"
 "http://www.w3.org/TR/2001/REC-SVG-20010904/DTD/svg10.dtd">
<svg version="1.0" xmlns="http://www.w3.org/2000/svg"
 width="630.000000pt" height="630.000000pt" viewBox="0 0 630.000000 630.000000"
 preserveAspectRatio="xMidYMid meet">

<g transform="translate(0.000000,630.000000) scale(0.100000,-0.100000)"
fill="#000000" stroke="none">
<path d="M30 3135 l0 -3125 3125 0 3125 0 0 3125 0 3125 -3125 0 -3125 0 0
-3125z m2000 2000 l0 -875 -875 0 -875 0 0 875 0 875 875 0 875 0 0 -875z
m2000 0 l0 -875 -875 0 -875 0 0 875 0 875 875 0 875 0 0 -875z m2000 0 l0
-875 -875 0 -875 0 0 875 0 875 875 0 875 0 0 -875z m-4000 -2000 l0 -875
-875 0 -875 0 0 875 0 875 875 0 875 0 0 -875z m2000 0 l0 -875 -875 0 -875 0
0 875 0 875 875 0 875 0 0 -875z m2000 0 l0 -875 -875 0 -875 0 0 875 0 875
875 0 875 0 0 -875z m-4000 -2000 l0 -875 -875 0 -875 0 0 875 0 875 875 0
875 0 0 -875z m2000 0 l0 -875 -875 0 -875 0 0 875 0 875 875 0 875 0 0 -875z
m2000 0 l0 -875 -875 0 -875 0 0 875 0 875 875 0 875 0 0 -875z"/>
</g>
</svg>
