<?xml version="1.0" encoding="iso-8859-1"?>
<!-- Uploaded to: SVG Repo, www.svgrepo.com, Generator: SVG Repo Mixer Tools -->
<svg fill="#000000" height="800px" width="800px" version="1.1" id="Layer_1" xmlns="http://www.w3.org/2000/svg" xmlns:xlink="http://www.w3.org/1999/xlink" 
	 viewBox="0 0 210.414 210.414" xml:space="preserve">
<g>
	<g>
		<path d="M206.517,0h-50.655h-50.655H54.552H3.897C1.743,0,0,1.745,0,3.897v50.655v50.655v50.655v50.655
			c0,2.152,1.743,3.897,3.897,3.897h50.655h50.655h50.655h50.655c2.154,0,3.897-1.745,3.897-3.897v-50.655v-50.655V54.552V3.897
			C210.414,1.745,208.671,0,206.517,0z M50.655,202.621H7.793v-42.862h42.862V202.621z M50.655,151.965H7.793v-42.862h42.862
			V151.965z M50.655,101.31H7.793V58.448h42.862V101.31z M50.655,50.655H7.793V7.793h42.862V50.655z M101.31,202.621H58.448v-42.862
			h42.862V202.621z M101.31,151.965H58.448v-42.862h42.862V151.965z M101.31,101.31H58.448V58.448h42.862V101.31z M101.31,50.655
			H58.448V7.793h42.862V50.655z M151.965,202.621h-42.862v-42.862h42.862V202.621z M151.965,151.965h-42.862v-42.862h42.862V151.965
			z M151.966,101.31h-42.862V58.448h42.862V101.31z M151.966,50.655h-42.862V7.793h42.862V50.655z M202.621,202.621h-42.862v-42.862
			h42.862V202.621z M202.621,151.965h-42.862v-42.862h42.862V151.965z M202.621,101.31h-42.862V58.448h42.862V101.31z
			 M202.621,50.655h-42.862V7.793h42.862V50.655z"/>
	</g>
</g>
</svg>