<?xml version="1.0" encoding="iso-8859-1"?>
<!-- Uploaded to: SVG Repo, www.svgrepo.com, Generator: SVG Repo Mixer Tools -->
<!DOCTYPE svg PUBLIC "-//W3C//DTD SVG 1.1//EN" "http://www.w3.org/Graphics/SVG/1.1/DTD/svg11.dtd">
<svg fill="#000000" version="1.1" id="Capa_1" xmlns="http://www.w3.org/2000/svg" xmlns:xlink="http://www.w3.org/1999/xlink" 
	 width="800px" height="800px" viewBox="0 0 94 94" xml:space="preserve">
<g>
	<g>
		<path d="M90.764,0H3.236c-1.104,0-2,0.896-2,2v21.935c0,1.104,0.896,2,2,2h87.527c1.104,0,2-0.896,2-2V2
			C92.764,0.896,91.869,0,90.764,0z"/>
		<path d="M56.281,31.09H37.719c-1.104,0-2,0.896-2,2v14.186c0,1.104,0.896,2,2,2h18.563c1.104,0,2-0.896,2-2V33.09
			C58.281,31.985,57.386,31.09,56.281,31.09z"/>
		<path d="M56.281,57.322H37.719c-1.104,0-2,0.896-2,2V92c0,1.104,0.896,2,2,2h18.563c1.104,0,2-0.896,2-2V59.322
			C58.281,58.218,57.386,57.322,56.281,57.322z"/>
		<path d="M90.764,31.09H72.201c-1.104,0-2,0.896-2,2v29.26c0,1.104,0.896,2,2,2h18.563c1.104,0,2-0.896,2-2V33.09
			C92.764,31.985,91.869,31.09,90.764,31.09z"/>
		<path d="M21.799,31.09H3.236c-1.104,0-2,0.896-2,2v29.26c0,1.104,0.896,2,2,2h18.563c1.104,0,2-0.896,2-2V33.09
			C23.799,31.985,22.903,31.09,21.799,31.09z"/>
		<path d="M21.799,72.411H3.236c-1.104,0-2,0.896-2,2V92c0,1.104,0.896,2,2,2h18.563c1.104,0,2-0.896,2-2V74.411
			C23.799,73.307,22.903,72.411,21.799,72.411z"/>
		<path d="M90.764,72.411H72.201c-1.104,0-2,0.896-2,2V92c0,1.104,0.896,2,2,2h18.563c1.104,0,2-0.896,2-2V74.411
			C92.764,73.307,91.869,72.411,90.764,72.411z"/>
	</g>
</g>
</svg>