<?xml version="1.0" encoding="iso-8859-1"?>
<!-- Uploaded to: SVG Repo, www.svgrepo.com, Generator: SVG Repo Mixer Tools -->
<svg fill="#000000" height="800px" width="800px" version="1.1" id="Layer_1" xmlns="http://www.w3.org/2000/svg" xmlns:xlink="http://www.w3.org/1999/xlink" 
	 viewBox="0 0 330 330" xml:space="preserve">
<path id="XMLID_16_" d="M4.394,154.394c-5.858,5.857-5.858,15.355,0,21.213l37.5,37.5c2.929,2.929,6.768,4.394,10.606,4.394
	s7.678-1.465,10.606-4.394c5.858-5.857,5.858-15.355,0-21.213L51.213,180H150v98.787l-11.894-11.893
	c-5.857-5.857-15.355-5.857-21.213,0c-5.858,5.857-5.858,15.355,0,21.213l37.5,37.5C157.322,328.535,161.161,330,165,330
	s7.678-1.465,10.606-4.394l37.5-37.5c5.858-5.857,5.858-15.355,0-21.213c-5.857-5.857-15.355-5.857-21.213,0L180,278.787V180h98.787
	l-11.893,11.894c-5.858,5.857-5.858,15.355,0,21.213c2.929,2.929,6.767,4.394,10.606,4.394c3.839,0,7.678-1.465,10.606-4.394
	l37.5-37.5c5.858-5.857,5.858-15.355,0-21.213l-37.5-37.5c-5.857-5.857-15.355-5.857-21.213,0c-5.858,5.857-5.858,15.355,0,21.213
	L278.787,150H180V51.213l11.894,11.893c2.929,2.929,6.768,4.394,10.606,4.394s7.678-1.465,10.606-4.394
	c5.858-5.857,5.858-15.355,0-21.213l-37.5-37.5c-5.857-5.858-15.355-5.858-21.213,0l-37.5,37.5c-5.858,5.857-5.858,15.355,0,21.213
	c5.857,5.857,15.355,5.857,21.213,0L150,51.213V150H51.213l11.894-11.894c5.858-5.857,5.858-15.355,0-21.213
	c-5.857-5.857-15.355-5.857-21.213,0L4.394,154.394z"/>
</svg>